<svg xmlns="http://www.w3.org/2000/svg" xmlns:xlink="http://www.w3.org/1999/xlink" zoomAndPan="magnify" preserveAspectRatio="xMidYMid meet" version="1.0" viewBox="604.5 269.25 231 266.08"><defs><g/><clipPath id="ca26bec4cc"><path d="M 604.5 269.25 L 835.5 269.25 L 835.5 499.5 L 604.5 499.5 Z M 604.5 269.25 " clip-rule="nonzero"/></clipPath><clipPath id="829f4450bc"><path d="M 695.699219 341.25 L 743.699219 341.25 L 743.699219 389.25 L 695.699219 389.25 Z M 695.699219 341.25 " clip-rule="nonzero"/></clipPath></defs><g clip-path="url(#ca26bec4cc)"><path fill="#814a23" d="M 835.5 384.375 C 835.5 447.957031 783.789062 499.5 720 499.5 C 656.210938 499.5 604.5 447.957031 604.5 384.375 C 604.5 320.792969 656.210938 269.25 720 269.25 C 783.789062 269.25 835.5 320.792969 835.5 384.375 " fill-opacity="1" fill-rule="nonzero"/></g><path fill="#ffffff" d="M 663.09375 330.84375 C 661.035156 330.84375 659.363281 332.511719 659.363281 334.5625 L 659.363281 409.785156 C 659.363281 411.835938 661.035156 413.503906 663.09375 413.503906 L 776.90625 413.503906 C 778.964844 413.503906 780.636719 411.835938 780.636719 409.785156 L 780.636719 334.5625 C 780.636719 332.511719 778.964844 330.84375 776.90625 330.84375 Z M 776.90625 417.535156 L 663.09375 417.535156 C 658.808594 417.535156 655.320312 414.058594 655.320312 409.785156 L 655.320312 334.5625 C 655.320312 330.289062 658.808594 326.816406 663.09375 326.816406 L 776.90625 326.816406 C 781.191406 326.816406 784.679688 330.289062 784.679688 334.5625 L 784.679688 409.785156 C 784.679688 414.058594 781.191406 417.535156 776.90625 417.535156 " fill-opacity="1" fill-rule="nonzero"/><path fill="#ffffff" d="M 782.660156 400.578125 L 657.339844 400.578125 C 656.226562 400.578125 655.320312 399.675781 655.320312 398.5625 C 655.320312 397.449219 656.226562 396.546875 657.339844 396.546875 L 782.660156 396.546875 C 783.777344 396.546875 784.679688 397.449219 784.679688 398.5625 C 784.679688 399.675781 783.777344 400.578125 782.660156 400.578125 " fill-opacity="1" fill-rule="nonzero"/><path fill="#ffffff" d="M 710.761719 429.796875 C 709.648438 429.796875 708.742188 428.894531 708.742188 427.78125 L 708.742188 415.519531 C 708.742188 414.40625 709.648438 413.503906 710.761719 413.503906 C 711.878906 413.503906 712.785156 414.40625 712.785156 415.519531 L 712.785156 427.78125 C 712.785156 428.894531 711.878906 429.796875 710.761719 429.796875 " fill-opacity="1" fill-rule="nonzero"/><path fill="#ffffff" d="M 729.238281 429.796875 C 728.121094 429.796875 727.214844 428.894531 727.214844 427.78125 L 727.214844 415.519531 C 727.214844 414.40625 728.121094 413.503906 729.238281 413.503906 C 730.351562 413.503906 731.257812 414.40625 731.257812 415.519531 L 731.257812 427.78125 C 731.257812 428.894531 730.351562 429.796875 729.238281 429.796875 " fill-opacity="1" fill-rule="nonzero"/><path fill="#ffffff" d="M 689.792969 437.90625 L 750.207031 437.90625 C 749.277344 433.660156 745.476562 430.46875 740.941406 430.46875 L 699.058594 430.46875 C 694.523438 430.46875 690.722656 433.660156 689.792969 437.90625 Z M 752.445312 441.933594 L 687.554688 441.933594 C 686.4375 441.933594 685.535156 441.03125 685.535156 439.921875 C 685.535156 432.488281 691.601562 426.4375 699.058594 426.4375 L 740.941406 426.4375 C 748.398438 426.4375 754.464844 432.488281 754.464844 439.921875 C 754.464844 441.03125 753.5625 441.933594 752.445312 441.933594 " fill-opacity="1" fill-rule="nonzero"/><g clip-path="url(#829f4450bc)"><path fill="#bda18e" d="M 719.699219 342.796875 C 707.320312 342.796875 697.25 352.867188 697.25 365.25 C 697.25 377.628906 707.320312 387.703125 719.699219 387.703125 C 732.078125 387.703125 742.152344 377.628906 742.152344 365.25 C 742.152344 352.867188 732.078125 342.796875 719.699219 342.796875 Z M 719.699219 389.25 C 706.464844 389.25 695.699219 378.484375 695.699219 365.25 C 695.699219 352.015625 706.464844 341.25 719.699219 341.25 C 732.933594 341.25 743.699219 352.015625 743.699219 365.25 C 743.699219 378.484375 732.933594 389.25 719.699219 389.25 " fill-opacity="1" fill-rule="nonzero"/></g><path fill="#bda18e" d="M 722.023438 348.21875 C 720.3125 348.21875 718.925781 349.605469 718.925781 351.316406 C 718.925781 353.023438 720.3125 354.410156 722.023438 354.410156 C 723.730469 354.410156 725.121094 353.023438 725.121094 351.316406 C 725.121094 349.605469 723.730469 348.21875 722.023438 348.21875 Z M 722.023438 355.960938 C 719.460938 355.960938 717.378906 353.875 717.378906 351.316406 C 717.378906 348.753906 719.460938 346.667969 722.023438 346.667969 C 724.585938 346.667969 726.667969 348.753906 726.667969 351.316406 C 726.667969 353.875 724.585938 355.960938 722.023438 355.960938 " fill-opacity="1" fill-rule="nonzero"/><path fill="#bda18e" d="M 715.746094 362.109375 C 716.15625 362.109375 716.523438 362.199219 716.832031 362.429688 C 717.097656 362.625 717.410156 363.007812 717.410156 363.703125 C 717.410156 364.011719 717.285156 364.425781 716.976562 365.417969 C 716.308594 367.589844 715.054688 371.628906 715.054688 376.089844 C 715.054688 377.964844 716.417969 379.960938 718.945312 379.960938 C 723.019531 379.960938 725.433594 378.714844 726.335938 377.546875 C 726.5625 377.25 726.640625 377.027344 726.660156 376.902344 C 724.15625 377.792969 722.375 377.886719 721.359375 377.179688 C 720.953125 376.894531 720.472656 376.34375 720.472656 375.316406 C 720.472656 370.453125 721.90625 366.0625 722.859375 363.152344 C 723.226562 362.035156 723.570312 360.976562 723.570312 360.605469 C 723.570312 359.207031 721.414062 359.054688 720.484375 359.054688 C 716.898438 359.054688 712.96875 361.722656 712.117188 362.921875 C 712.464844 362.890625 713.023438 362.726562 713.523438 362.578125 C 714.316406 362.335938 715.085938 362.109375 715.746094 362.109375 Z M 718.945312 381.507812 C 715.542969 381.507812 713.507812 378.753906 713.507812 376.089844 C 713.507812 371.394531 714.800781 367.210938 715.5 364.960938 C 715.667969 364.40625 715.847656 363.832031 715.863281 363.679688 C 715.863281 363.675781 715.863281 363.667969 715.863281 363.664062 C 715.511719 363.597656 714.515625 363.894531 713.964844 364.058594 C 713.25 364.273438 712.570312 364.476562 712.019531 364.476562 C 710.488281 364.476562 710.410156 363.425781 710.410156 363.214844 C 710.410156 361.097656 716.136719 357.507812 720.484375 357.507812 C 723.390625 357.507812 725.121094 358.667969 725.121094 360.605469 C 725.121094 361.226562 724.804688 362.183594 724.328125 363.636719 C 723.410156 366.449219 722.023438 370.703125 722.023438 375.316406 C 722.023438 375.753906 722.183594 375.863281 722.25 375.914062 C 722.402344 376.015625 723.285156 376.480469 726.246094 375.40625 C 726.417969 375.34375 726.503906 375.316406 726.648438 375.316406 C 727.570312 375.316406 728.214844 375.9375 728.214844 376.828125 C 728.214844 377.886719 727.316406 379.078125 725.859375 379.9375 C 724.652344 380.65625 722.476562 381.507812 718.945312 381.507812 " fill-opacity="1" fill-rule="nonzero"/><g fill="#bda18e" fill-opacity="1"><g transform="translate(672.930436, 535.106945)"><g><path d="M 8.96875 -18.71875 C 11.726562 -18.71875 14.160156 -18.03125 16.265625 -16.65625 L 14.484375 -12.984375 C 13.515625 -13.546875 12.472656 -14.003906 11.359375 -14.359375 C 10.253906 -14.722656 9.320312 -14.90625 8.5625 -14.90625 C 7.207031 -14.90625 6.53125 -14.457031 6.53125 -13.5625 C 6.53125 -12.976562 6.863281 -12.507812 7.53125 -12.15625 C 8.207031 -11.800781 9.023438 -11.492188 9.984375 -11.234375 C 10.941406 -10.984375 11.898438 -10.675781 12.859375 -10.3125 C 13.816406 -9.957031 14.628906 -9.375 15.296875 -8.5625 C 15.972656 -7.75 16.3125 -6.726562 16.3125 -5.5 C 16.3125 -3.71875 15.613281 -2.328125 14.21875 -1.328125 C 12.832031 -0.335938 11.0625 0.15625 8.90625 0.15625 C 7.375 0.15625 5.859375 -0.101562 4.359375 -0.625 C 2.859375 -1.15625 1.554688 -1.878906 0.453125 -2.796875 L 2.28125 -6.421875 C 3.207031 -5.609375 4.304688 -4.941406 5.578125 -4.421875 C 6.847656 -3.898438 7.976562 -3.640625 8.96875 -3.640625 C 9.71875 -3.640625 10.304688 -3.773438 10.734375 -4.046875 C 11.160156 -4.328125 11.375 -4.734375 11.375 -5.265625 C 11.375 -5.773438 11.128906 -6.203125 10.640625 -6.546875 C 10.160156 -6.890625 9.554688 -7.144531 8.828125 -7.3125 C 8.109375 -7.476562 7.320312 -7.703125 6.46875 -7.984375 C 5.625 -8.265625 4.84375 -8.570312 4.125 -8.90625 C 3.40625 -9.238281 2.800781 -9.769531 2.3125 -10.5 C 1.832031 -11.238281 1.59375 -12.117188 1.59375 -13.140625 C 1.59375 -14.828125 2.265625 -16.175781 3.609375 -17.1875 C 4.953125 -18.207031 6.738281 -18.71875 8.96875 -18.71875 Z M 8.96875 -18.71875 "/></g></g></g><g fill="#bda18e" fill-opacity="1"><g transform="translate(689.948681, 535.106945)"><g><path d="M 10.625 -18.671875 C 13.5 -18.671875 15.882812 -17.773438 17.78125 -15.984375 C 19.6875 -14.191406 20.640625 -11.957031 20.640625 -9.28125 C 20.640625 -6.582031 19.679688 -4.320312 17.765625 -2.5 C 15.859375 -0.6875 13.476562 0.21875 10.625 0.21875 C 7.769531 0.21875 5.390625 -0.679688 3.484375 -2.484375 C 1.585938 -4.296875 0.640625 -6.5625 0.640625 -9.28125 C 0.640625 -11.976562 1.585938 -14.21875 3.484375 -16 C 5.390625 -17.78125 7.769531 -18.671875 10.625 -18.671875 Z M 10.6875 -14.71875 C 9.238281 -14.71875 8.003906 -14.191406 6.984375 -13.140625 C 5.960938 -12.097656 5.453125 -10.800781 5.453125 -9.25 C 5.453125 -7.695312 5.96875 -6.390625 7 -5.328125 C 8.03125 -4.265625 9.257812 -3.734375 10.6875 -3.734375 C 12.113281 -3.734375 13.320312 -4.265625 14.3125 -5.328125 C 15.3125 -6.390625 15.8125 -7.695312 15.8125 -9.25 C 15.8125 -10.800781 15.3125 -12.097656 14.3125 -13.140625 C 13.320312 -14.191406 12.113281 -14.71875 10.6875 -14.71875 Z M 10.6875 -14.71875 "/></g></g></g><g fill="#bda18e" fill-opacity="1"><g transform="translate(711.221484, 535.106945)"><g><path d="M 1.84375 -18.5 L 10.59375 -18.5 C 12.675781 -18.5 14.328125 -18.082031 15.546875 -17.25 C 16.773438 -16.414062 17.390625 -15.289062 17.390625 -13.875 C 17.390625 -12.90625 17.109375 -12.054688 16.546875 -11.328125 C 15.984375 -10.597656 15.207031 -10.09375 14.21875 -9.8125 C 15.382812 -9.582031 16.3125 -9.039062 17 -8.1875 C 17.6875 -7.34375 18.03125 -6.320312 18.03125 -5.125 C 18.03125 -3.5625 17.390625 -2.316406 16.109375 -1.390625 C 14.835938 -0.460938 13.109375 0 10.921875 0 L 1.84375 0 Z M 6.53125 -14.90625 L 6.53125 -11.109375 L 10.34375 -11.109375 C 11.03125 -11.109375 11.570312 -11.28125 11.96875 -11.625 C 12.375 -11.96875 12.578125 -12.4375 12.578125 -13.03125 C 12.578125 -13.613281 12.375 -14.070312 11.96875 -14.40625 C 11.570312 -14.738281 11.03125 -14.90625 10.34375 -14.90625 Z M 6.53125 -7.71875 L 6.53125 -3.625 L 10.34375 -3.625 C 11.21875 -3.625 11.90625 -3.804688 12.40625 -4.171875 C 12.914062 -4.546875 13.171875 -5.054688 13.171875 -5.703125 C 13.171875 -6.328125 12.914062 -6.816406 12.40625 -7.171875 C 11.90625 -7.535156 11.21875 -7.71875 10.34375 -7.71875 Z M 6.53125 -7.71875 "/></g></g></g><g fill="#bda18e" fill-opacity="1"><g transform="translate(730.115953, 535.106945)"><g><path d="M 13 0 L 10.25 -5.203125 L 6.5625 -5.203125 L 6.5625 0 L 1.84375 0 L 1.84375 -18.5 L 10.125 -18.5 C 12.570312 -18.5 14.460938 -17.941406 15.796875 -16.828125 C 17.140625 -15.710938 17.8125 -14.125 17.8125 -12.0625 C 17.8125 -9.195312 16.695312 -7.210938 14.46875 -6.109375 L 18.34375 0 Z M 6.5625 -8.90625 L 10.125 -8.90625 C 11.144531 -8.90625 11.9375 -9.160156 12.5 -9.671875 C 13.0625 -10.179688 13.34375 -10.921875 13.34375 -11.890625 C 13.34375 -12.847656 13.0625 -13.570312 12.5 -14.0625 C 11.9375 -14.5625 11.144531 -14.8125 10.125 -14.8125 L 6.5625 -14.8125 Z M 6.5625 -8.90625 "/></g></g></g><g fill="#bda18e" fill-opacity="1"><g transform="translate(749.248265, 535.106945)"><g><path d="M 16.34375 -14.8125 L 6.5625 -14.8125 L 6.5625 -11.125 L 15.390625 -11.125 L 15.390625 -7.421875 L 6.5625 -7.421875 L 6.5625 -3.703125 L 16.625 -3.703125 L 16.625 0 L 1.84375 0 L 1.84375 -18.5 L 16.34375 -18.5 Z M 16.34375 -14.8125 "/></g></g></g></svg>